<?xml version="1.0" encoding="utf-8"?>
<!-- Generator: Adobe Illustrator 16.0.3, SVG Export Plug-In . SVG Version: 6.00 Build 0)  -->
<!DOCTYPE svg PUBLIC "-//W3C//DTD SVG 1.1//EN" "http://www.w3.org/Graphics/SVG/1.1/DTD/svg11.dtd">
<svg version="1.1" id="svg2" xmlns:svg="http://www.w3.org/2000/svg"
	 xmlns="http://www.w3.org/2000/svg" xmlns:xlink="http://www.w3.org/1999/xlink" x="0px" y="0px" width="200px" height="200px"
	 viewBox="0 0 200 200" enable-background="new 0 0 200 200" xml:space="preserve">
<path id="path2847" d="M104.549,111.639c-2.589,0.846-4.729,2.271-6.419,4.279c-1.69,2.007-2.721,4.199-3.09,6.576
	c-0.37,2.378-0.066,4.729,0.911,7.053c0.978,2.325,2.813,4.2,5.507,5.627c0.634,0,1.03,0.264,1.188,0.792s-0.08,0.792-0.713,0.792
	c-2.588-0.527-4.86-1.611-6.815-3.248c-3.645-3.012-5.652-6.895-6.022-11.648c-0.211-2.377,0.014-4.676,0.674-6.895
	s1.572-4.253,2.734-6.102c1.426-1.955,3.117-3.645,5.071-5.071c0.106-0.106,0.41-0.343,0.911-0.713
	c0.502-0.37,0.991-0.714,1.466-1.03s1.188-0.818,2.139-1.506L99.16,86.44c-2.588,2.166-5.151,4.556-7.687,7.171
	s-4.833,5.376-6.894,8.282c-2.06,2.905-3.711,5.982-4.953,9.231c-1.241,3.249-1.862,6.669-1.862,10.263c0,3.327,0.7,6.457,2.1,9.389
	c1.4,2.933,3.262,5.481,5.586,7.646c2.325,2.166,5.005,3.87,8.043,5.111c3.038,1.242,6.115,1.863,9.232,1.863
	c0.105,0,0.594-0.053,1.465-0.16c0.873-0.104,1.797-0.236,2.773-0.396c0.979-0.157,1.876-0.329,2.695-0.515
	c0.818-0.186,1.229-0.383,1.229-0.594l-0.477-2.219C108.352,131.105,106.396,121.148,104.549,111.639z M107.322,111.322
	l6.498,31.459c3.75-1.428,6.285-3.871,7.607-7.33c1.32-3.461,1.623-6.973,0.91-10.539s-2.391-6.723-5.031-9.471
	C114.665,112.695,111.337,111.322,107.322,111.322z M99.001,68.928c1.637-0.846,3.157-2.113,4.557-3.804
	c1.399-1.69,2.693-3.5,3.883-5.428c1.188-1.928,2.219-3.896,3.09-5.904c0.871-2.007,1.572-3.829,2.1-5.467
	c0.581-1.743,0.977-3.698,1.189-5.864c0.211-2.166-0.133-3.988-1.03-5.468c-0.634-1.32-1.466-2.086-2.496-2.298
	c-1.03-0.211-2.062-0.132-3.091,0.238c-1.03,0.37-2.008,0.964-2.932,1.783s-1.599,1.545-2.021,2.179
	c-1.163,2.06-2.18,4.358-3.051,6.894c-0.872,2.536-1.466,5.164-1.783,7.885c-0.317,2.72-0.357,5.335-0.119,7.845
	C97.536,64.028,98.104,66.498,99.001,68.928z M96.625,71.384c-0.898-3.486-1.69-6.907-2.377-10.262
	c-0.687-3.354-1.03-6.801-1.03-10.341c0-2.588,0.185-5.428,0.555-8.518c0.37-3.09,1.043-6.103,2.021-9.034
	c0.977-2.932,2.324-5.56,4.041-7.884c1.717-2.325,4.001-4.015,6.854-5.072c0.265-0.105,0.528-0.158,0.793-0.158
	c0.369,0,0.806,0.211,1.308,0.634c0.502,0.422,1.03,1.043,1.585,1.862c0.555,0.819,1.043,1.664,1.466,2.536
	c0.423,0.871,0.739,1.466,0.951,1.783c1.426,2.694,2.47,5.56,3.13,8.597c0.66,3.038,1.043,6.062,1.148,9.073
	c0.211,4.544-0.039,9.034-0.752,13.472c-0.713,4.437-2.153,8.769-4.319,12.995c-0.739,1.268-1.492,2.549-2.259,3.843
	c-0.766,1.295-1.676,2.549-2.733,3.764c-0.211,0.212-0.594,0.595-1.149,1.149c-0.555,0.555-1.123,1.123-1.703,1.704
	c-0.582,0.581-1.096,1.123-1.545,1.624c-0.449,0.502-0.674,0.806-0.674,0.912l3.248,15.848c0.021,0.104,1.625,0,1.625,0
	c3.1,0.039,6.383,0.541,9.232,1.664c2.747,1.27,5.111,3.012,7.092,5.23s3.564,4.715,4.754,7.488s1.783,5.587,1.783,8.439
	s-0.423,5.758-1.268,8.717c-2.166,5.6-5.627,9.746-10.381,12.441c-0.529,0.316-1.281,0.674-2.258,1.069
	c-0.978,0.396-1.361,1.017-1.15,1.862c1.269,5.756,2.127,9.716,2.576,11.886s0.779,4.97,0.99,8.399
	c0.211,3.281-0.357,6.23-1.703,8.871c-1.348,2.649-3.156,4.799-5.429,6.459c-2.271,1.67-4.345,2.641-6.22,2.94
	c-1.876,0.29-3.157,0.431-3.844,0.431c-2.377,0-4.702-0.451-6.973-1.351c-2.8-1.05-5.15-2.66-7.052-4.83s-2.853-4.81-2.853-7.92
	c0-1.96,0.568-3.97,1.704-6.03s2.628-3.539,4.477-4.43c2.06-1.061,3.922-1.35,5.586-0.881c1.664,0.48,3.038,1.381,4.121,2.701
	s1.836,2.92,2.259,4.789c0.422,1.881,0.396,3.631-0.08,5.271s-1.438,3.03-2.892,4.16c-1.453,1.14-3.473,1.649-6.062,1.55
	c1.057,1.9,2.536,3.1,4.438,3.6c1.902,0.51,3.857,0.541,5.863,0.121c2.008-0.42,3.896-1.201,5.666-2.341
	c1.771-1.13,3.157-2.36,4.16-3.68c0.635-0.95,1.11-2.19,1.428-3.72c0.316-1.541,0.502-3.131,0.554-4.801
	c0.053-1.66,0-2.959-0.158-3.879c-0.159-0.931-0.423-2.371-0.793-4.32c-1.584-6.391-2.588-10.41-3.011-12.051
	c-0.211-0.523-0.779-0.695-1.703-0.51c-0.926,0.186-1.704,0.357-2.338,0.51c-4.543,0.59-8.347,0.32-11.411-0.787
	c-4.754-1.268-8.941-3.527-12.56-6.775s-6.524-7.184-8.717-11.807s-3.289-8.135-3.289-10.539c0-2.403,0-3.922,0-4.557
	c0-4.279,0.74-8.294,2.219-12.045c2.8-5.864,6.115-11.252,9.945-16.165C87.34,80.18,91.711,75.61,96.625,71.384z"/>
</svg>
